<svg width="392" height="263" viewBox="0 0 392 263" fill="none" xmlns="http://www.w3.org/2000/svg">
<g clip-path="url(#clip0_1_43)">
<path d="M158.722 54.9209C158.722 39.89 164.087 26.9982 174.828 16.2425C185.568 5.48672 198.508 0.107269 213.64 0.107269V208.186C213.64 223.224 208.269 236.115 197.528 246.871C186.788 257.627 173.854 263 158.722 263V154.651L54.7357 154.468V208.183C54.7357 223.22 49.3954 236.112 38.718 246.868C28.0342 257.624 15.1324 262.997 0 262.997V54.9209C0 39.89 5.33715 26.9982 16.0177 16.2425C26.6952 5.48672 39.6033 0.107269 54.7357 0.107269V108.637H158.722V54.9209Z" fill="#950606"/>
<path d="M392 201.479C392 218.466 386.143 232.828 374.426 244.562C362.709 256.295 348.181 262.407 330.853 262.896L213.87 83.9668V207.899C213.87 223.053 208.53 236.008 197.853 246.767C187.169 257.523 174.267 262.896 159.135 262.896V61.7801C159.135 44.6731 165.051 30.2196 176.892 18.4258C188.725 6.63518 196.186 0.59947 213.64 0.107274L337.258 178.746V54.8136C337.258 39.7827 342.595 26.891 353.276 16.1352C363.953 5.37945 376.861 0 392 0V201.479Z" fill="#950606"/>
</g>
<defs>
<clipPath id="clip0_1_43">
<rect width="392" height="263" fill="white"/>
</clipPath>
</defs>
</svg>
