<svg xmlns="http://www.w3.org/2000/svg" viewBox="0 0 2493.41 1053.8"><defs><style>.cls-1{fill:#960605;}</style></defs><g id="Layer_2" data-name="Layer 2"><g id="Layer_1-2" data-name="Layer 1"><path class="cls-1" d="M1145.26,2.06c76-3.43,155.85.2,232,.37,66.32.15,129.8-3.46,196.52.27-18,65.72-43.07,137.18-64.62,202l-75.44,232.52L1285.93,895c-16.62,51.25-32.69,108.05-49.81,157.94l-60.8-.12-238.24,0c-40.62.06-88.41-1-128.6.75,9.78-38.49,25.39-78.28,37.21-116.64,28-90.92,60.26-182.16,87.74-273.1-48.86-2.83-106.07-.18-155.46-.48-78.77-.48-157.23-.5-236,1.07-6.84,32.25-28.62,89.45-39.59,123.39l-85.25,265L143,1052.64c-43.91,0-100.07-1.34-143,1,2.69-15,11.52-40,16.53-54.93q12.21-36.21,23.88-72.6l92.27-285.93L273.22,203.13c11.5-35.59,23.29-71.42,34.35-107.12,10.09-32.53,18-62.27,30.9-93.95,18.35,1,44.25-.08,63.14-.31l170.84.48c62.28-.18,120.86-1.39,183.15.33-9.31,32.81-20.6,64.87-31,97.35L665.67,284.49c-10.83,33.94-23,70.27-32.08,104.57l388.7,0C1064.52,260.13,1101.82,130.75,1145.26,2.06Z"/><path class="cls-1" d="M1640.46,0c89,176,159.53,365.93,239.17,547.51C1941.87,369.64,1999,182.65,2056,2.32c145.58-.48,291.77-2.75,437.42.24-105.38,333.64-231,715.57-340.56,1050.05-114.6.89-345.45-1.82-456.91,1.19C1640,914,1526.07,650.36,1474.65,506.3,1522.62,349.81,1584.93,153.82,1640.46,0Z"/></g></g></svg>